<svg width="270" height="270" viewBox="0 0 270 270" fill="none" xmlns="http://www.w3.org/2000/svg">
<g clip-path="url(#clip0_165_2)">
<path d="M199.745 0H70C31.3401 0 0 31.3401 0 70V199.745C0 238.405 31.3401 269.745 70 269.745H199.745C238.405 269.745 269.745 238.405 269.745 199.745V70C269.745 31.3401 238.405 0 199.745 0Z" fill="#6D1D4F"/>
<path d="M57.5479 140.305L63.757 129.551H138.288L132.079 140.305H57.5479Z" fill="#FFD248"/>
<path d="M132.081 140.305L169.291 204.96L175.5 194.195L138.29 129.551L132.081 140.305Z" fill="white"/>
<path d="M57.5144 140.363L94.7236 205.007L100.933 194.254L63.7234 129.599L57.5144 140.363Z" fill="white"/>
<path d="M94.7561 204.96L100.965 194.195H175.496L169.287 204.96H94.7561Z" fill="#FFD248"/>
<path d="M76.4004 107.651L82.6094 96.8862H157.152L150.943 107.651H76.4004Z" fill="#FFD248"/>
<path d="M150.942 107.651L188.152 172.295L194.361 161.541L157.151 96.8862L150.942 107.651Z" fill="white"/>
<path d="M76.3755 107.698L113.585 172.353L119.794 161.589L82.5846 96.9448L76.3755 107.698Z" fill="white"/>
<path d="M113.609 172.295L119.818 161.541H194.36L188.151 172.295H113.609Z" fill="#FFD248"/>
<path d="M94.9731 75.4921L101.182 64.7388H175.713L169.504 75.4921H94.9731Z" fill="#FFD248"/>
<path d="M169.503 75.4921L206.712 140.147L212.921 129.394L175.712 64.7388L169.503 75.4921Z" fill="white"/>
<path d="M94.9363 75.5507L132.146 140.194L138.355 129.441L101.145 64.7861L94.9363 75.5507Z" fill="white"/>
<path d="M132.177 140.147L138.386 129.383L212.917 129.394L206.708 140.147H132.177Z" fill="#FFD248"/>
</g>
<defs>
<clipPath id="clip0_165_2">
<rect width="270" height="270" fill="white"/>
</clipPath>
</defs>
</svg>
